<svg xmlns="http://www.w3.org/2000/svg" xmlns:xlink="http://www.w3.org/1999/xlink" width="12" height="12" viewBox="0 0 12 12" fill="none"><defs><rect id="path_0" x="0" y="0" width="12" height="12" /></defs><g opacity="1" transform="translate(0 0)  rotate(0 6 6)"><mask id="bg-mask-0" fill="white"><use xlink:href="#path_0"></use></mask><g mask="url(#bg-mask-0)" ><path id="分组 1" fill-rule="evenodd" style="fill:#636363" transform="translate(0.75 0.75)  rotate(0 5.25 5.25)" opacity="1" d="M6.21506 5.25494L4.23506 7.23494C4.08506 7.38494 4.08506 7.61494 4.23506 7.76494C4.30506 7.83494 4.40506 7.87494 4.49506 7.87494C4.59506 7.87494 4.69506 7.83494 4.76506 7.76494L6.88506 5.64494C7.10506 5.42494 7.10506 5.07494 6.88506 4.85494L4.76506 2.73494C4.61506 2.58494 4.38506 2.58494 4.23506 2.73494C4.08506 2.88494 4.08506 3.11494 4.23506 3.26494L6.21506 5.25494Z M0.75 5.25C0.75 7.73 2.77 9.75 5.25 9.75C7.73 9.75 9.75 7.73 9.75 5.25C9.75 2.77 7.73 0.75 5.25 0.75C2.77 0.75 0.75 2.77 0.75 5.25Z M0 5.25C0 8.15 2.35 10.5 5.25 10.5C8.15 10.5 10.5 8.15 10.5 5.25C10.5 2.35 8.15 0 5.25 0C2.35 0 0 2.35 0 5.25Z M6.35227 5.38254L6.35227 5.38254 M6.35227 5.38254L6.35227 5.38254 " /></g></g></svg>