<svg xmlns="http://www.w3.org/2000/svg" xmlns:xlink="http://www.w3.org/1999/xlink" width="16" height="16" viewBox="0 0 16 16" fill="none"><defs><rect id="path_0" x="0" y="0" width="16" height="16" /></defs><g opacity="1" transform="translate(0 0)  rotate(0 8 8)"><mask id="bg-mask-0" fill="white"><use xlink:href="#path_0"></use></mask><g mask="url(#bg-mask-0)" ><path id="分组 1" fill-rule="evenodd" style="fill:#FFFFFF" transform="translate(0.655962821263278 0)  rotate(0 7.344049732089064 8.000000017221891)" opacity="1" d="M3.67 5.52822C3.59 4.81822 2.76 3.59822 1.65 3.69822C0.24 3.81822 0.03 5.85822 0.03 5.85822C-0.16 6.79822 0.49 8.80822 2.22 8.42822C3.96 8.05822 3.73 5.97822 3.67 5.52822Z M4.00545 12.8878C4.19545 13.6178 4.83545 13.6578 4.83545 13.6578L5.74545 13.6578L5.74545 11.4278L4.76545 11.4278C4.32545 11.5578 4.11545 11.8978 4.07545 12.0478C4.01545 12.1978 3.90545 12.5678 4.00545 12.8878Z M7.18446 2.47C7.18446 1.11 6.41446 0 5.45446 0C4.49446 0 3.71446 1.11 3.71446 2.47C3.71446 3.84 4.49446 4.95 5.45446 4.95C6.41446 4.95 7.18446 3.84 7.18446 2.47Z M11.8664 2.86534C12.0264 1.82534 11.2064 0.625337 10.2964 0.415337C9.38644 0.205337 8.24644 1.66534 8.14644 2.61534C8.01644 3.78534 8.30644 4.94534 9.58644 5.10534C10.8764 5.27534 11.7064 3.90534 11.8664 2.86534Z M6.07456 15.6104C7.56457 15.2804 8.84456 15.7004 8.84456 15.7004C8.84456 15.7004 12.3246 16.8604 13.2746 14.6204C14.2246 12.3804 12.7346 11.2104 12.7346 11.2104C12.7346 11.2104 10.7546 9.68043 9.59457 8.01043C8.01456 5.57043 5.78456 6.56043 5.03456 7.81043C4.29457 9.05043 3.13457 9.84043 2.97457 10.0504C2.80456 10.2604 0.574565 11.4604 1.06457 13.6604C1.56456 15.8604 3.30456 15.8204 3.30456 15.8204C3.30456 15.8204 4.58457 15.9504 6.07456 15.6104Z M6.78912 9.09003L5.75912 9.07003L5.75912 10.55L4.55912 10.55C4.55912 10.55 3.34912 10.65 2.92912 12.01C2.78912 12.92 3.05912 13.46 3.10912 13.58C3.15912 13.69 3.54912 14.36 4.52912 14.55L6.78912 14.55L6.78912 9.09003Z M9.87935 13.5737L8.79935 13.5737C8.79935 13.5737 8.45935 13.5237 8.39935 13.2537L8.39935 10.6637L7.33935 10.6837L7.33935 13.5637C7.33935 13.5637 7.38935 14.2737 8.39935 14.5337L10.9993 14.5337L10.9993 10.6837L9.87935 10.6837L9.87935 13.5737Z M12.7386 4.85766C11.1986 4.85766 10.9986 6.26766 10.9986 7.26766C10.9986 8.21766 11.0786 9.55766 12.9886 9.50766C14.8886 9.46766 14.6786 7.34766 14.6786 6.84766C14.6786 6.35766 14.2686 4.85766 12.7386 4.85766Z " /></g></g></svg>