<svg xmlns="http://www.w3.org/2000/svg" xmlns:xlink="http://www.w3.org/1999/xlink" width="34" height="15" viewBox="0 0 34 15" fill="none"><defs><rect id="path_0" x="0" y="0" width="34" height="14.999999999999954" /></defs><g opacity="1" transform="translate(0 0)  rotate(0 17 7.499999999999977)"><mask id="bg-mask-0" fill="white"><use xlink:href="#path_0"></use></mask><g mask="url(#bg-mask-0)" ><path id="分组 1" fill-rule="evenodd" style="fill:#FFFFFF" transform="translate(0.03689236111107421 -2.70579496857653e-7)  rotate(0 16.998271686385436 7.499104665490333)" opacity="1" d="M26.693 7.08674C26.693 7.08674 27.273 6.94674 27.353 6.93674C27.433 6.91674 27.123 4.70674 27.083 4.63674C27.053 4.58674 26.353 4.73674 26.263 4.72674C26.273 4.91674 26.653 6.78675 26.693 7.08674Z M27.6752 6.89836C27.8352 6.88836 28.4652 6.84836 28.5252 6.83836C28.4352 5.93836 28.2752 4.50836 28.2752 4.50836C27.9852 4.45836 27.6752 4.45836 27.3752 4.50836L27.6752 6.89836Z M27.9846 13.9719C28.0646 13.9519 29.0846 13.8619 29.3946 13.8219C29.3546 13.6219 28.8946 8.55187 28.6446 7.65187C28.1446 7.48187 26.7746 7.82187 26.7746 7.82187C26.7746 8.07187 27.9146 13.5919 27.9846 13.9719Z M32.0127 7.13671C32.0127 7.13671 32.5927 7.08671 32.6727 7.07671C32.7627 7.06671 32.6827 4.93671 32.6727 4.76671C32.6627 4.70671 31.9327 4.80671 31.8527 4.78671C31.8427 4.98671 32.0027 6.83671 32.0127 7.13671Z M33.0333 7.08094C33.1933 7.08094 33.8133 7.12094 33.8733 7.11094C33.8633 6.21094 33.8733 4.78094 33.8733 4.78094C33.5833 4.73094 33.2733 4.71094 32.9733 4.72094L33.0333 7.08094Z M32.5762 14.1491C32.6662 14.1291 33.6762 14.1191 33.9962 14.1191C33.9862 13.9091 33.9962 8.98906 33.8962 7.92906C33.4162 7.70906 32.0162 7.88906 32.0162 7.88906C31.9962 8.12906 32.5662 13.7691 32.5762 14.1491Z M30.2117 13.3437C30.2117 13.3437 30.8417 13.3537 31.5617 13.4037C31.1417 9.00372 30.6217 1.97372 30.6317 1.74372C30.4517 1.54372 28.7617 1.83372 28.7617 1.83372C29.5717 5.91372 30.1817 12.8937 30.2117 13.3437Z M20.3618 9.46C20.3618 9.46 20.0718 6.94 19.9618 4.49C19.8618 2.39 19.9418 0.35 19.9718 0.01C19.8118 -0.1 18.1318 0.69 17.2318 1.02C17.2318 1.02 18.3118 5.56 19.1018 14.98C19.1018 14.98 20.3518 15.11 22.5018 14.7C24.6518 14.29 27.2018 13 26.9818 11.49C26.8218 10.34 22.6918 9.04 20.3618 9.46Z M24.122 11.889C23.882 11.739 21.652 10.919 21.562 10.959L21.922 13.549C21.922 13.549 24.082 12.049 24.122 11.889Z M9.46114 7.08674C9.46114 7.08674 10.0411 6.94674 10.1211 6.93674C10.2011 6.91674 9.89114 4.70674 9.85114 4.63674C9.82114 4.58674 9.12114 4.73674 9.03114 4.72674C9.04114 4.91674 9.42114 6.78675 9.46114 7.08674Z M10.4434 6.89836C10.6034 6.88836 11.2334 6.84836 11.2934 6.83836C11.1934 5.93836 11.0434 4.50836 11.0434 4.50836C10.7534 4.45836 10.4434 4.45836 10.1434 4.50836L10.4434 6.89836Z M10.7528 13.9719C10.8328 13.9519 11.8528 13.8619 12.1628 13.8219C12.1228 13.6219 11.6628 8.55187 11.4128 7.65187C10.9128 7.48187 9.54276 7.82187 9.54276 7.82187C9.54276 8.07187 10.6828 13.5919 10.7528 13.9719Z M14.7816 7.13671C14.7816 7.13671 15.3616 7.08671 15.4416 7.07671C15.5216 7.06671 15.4516 4.93671 15.4416 4.76671C15.4316 4.70671 14.7016 4.80671 14.6216 4.78671C14.6116 4.98671 14.7716 6.83671 14.7816 7.13671Z M15.8015 7.08364C15.9615 7.08364 16.5815 7.12364 16.6415 7.11364C16.6315 6.21364 16.6415 4.78364 16.6415 4.78364C16.3515 4.73364 16.0415 4.71364 15.7415 4.72364L15.8015 7.08364Z M15.3443 14.1491C15.4343 14.1291 16.4443 14.1191 16.7643 14.1191C16.7543 13.9091 16.7643 8.98906 16.6643 7.92906C16.1843 7.70906 14.7843 7.88906 14.7843 7.88906C14.7643 8.12906 15.3443 13.7691 15.3443 14.1491Z M12.9799 13.3407C12.9799 13.3407 13.6099 13.3507 14.3299 13.4007C13.9099 9.00067 13.3899 1.97067 13.3999 1.74067C13.2199 1.54067 11.5299 1.83067 11.5299 1.83067C12.3399 5.91067 12.9499 12.8907 12.9799 13.3407Z M3.13 9.46121C3.13 9.46121 2.84 6.93121 2.73 4.49121C2.63 2.39121 2.71 0.351208 2.74 0.011208C2.58 -0.088792 0.9 0.691208 0 1.02121C0 1.02121 1.08 5.56121 1.87 14.9812C1.87 14.9812 3.12 15.1112 5.27 14.7012C7.42 14.2912 9.97 13.0012 9.75 11.4912C9.59 10.3412 5.46 9.04121 3.13 9.46121Z M6.8902 11.889C6.6502 11.739 4.4202 10.919 4.3302 10.959L4.6902 13.549C4.6902 13.549 6.8502 12.049 6.8902 11.889Z " /></g></g></svg>