<svg xmlns="http://www.w3.org/2000/svg" xmlns:xlink="http://www.w3.org/1999/xlink" width="16" height="16" viewBox="0 0 16 16" fill="none"><defs><rect id="path_0" x="0" y="0" width="16" height="16" /></defs><g opacity="1" transform="translate(0 0)  rotate(0 8 8)"><mask id="bg-mask-0" fill="white"><use xlink:href="#path_0"></use></mask><g mask="url(#bg-mask-0)" ><path id="分组 1" fill-rule="evenodd" style="fill:#FFFFFF" transform="translate(-0.0000034808393098589985 0.010462337458320252)  rotate(0 8.002145714149261 7.999997566911855)" opacity="1" d="M7.38892 12.9306C10.5289 12.8806 13.0389 10.3006 12.9989 7.16064C12.9489 4.02064 10.3689 1.51064 7.23892 1.55064C4.09892 1.59064 1.58892 4.17064 1.62892 7.31064C1.66892 10.4606 4.24892 12.9706 7.38892 12.9306Z M14.64 15.76C14.95 16.07 15.44 16.08 15.76 15.78C16.07 15.48 16.09 14.99 15.8 14.66L15.77 14.63L13 11.86C14.21 10.35 14.77 8.42 14.55 6.49C14.34 4.57 13.37 2.81 11.86 1.6C8.71 -0.92 4.12 -0.41 1.61 2.74C-0.73 5.65 -0.49 9.84 2.14 12.48C4.78 15.11 8.97 15.33 11.87 12.99L14.64 15.76Z " /></g></g></svg>