<?xml version="1.0" standalone="no"?><!DOCTYPE svg PUBLIC "-//W3C//DTD SVG 1.1//EN" "http://www.w3.org/Graphics/SVG/1.1/DTD/svg11.dtd"><svg t="1663425891910" class="icon" viewBox="0 0 1024 1024" version="1.1" xmlns="http://www.w3.org/2000/svg" p-id="21763" xmlns:xlink="http://www.w3.org/1999/xlink" width="512" height="512"><path d="M764.586667 610.986667c-11.093333 10.666667-16.213333 26.453333-13.653334 41.386666l37.973334 209.92c2.986667 17.92-4.266667 35.84-19.2 46.08a46.933333 46.933333 0 0 1-49.92 3.413334l-189.013334-98.56a48.469333 48.469333 0 0 0-21.333333-5.546667h-11.52a34.602667 34.602667 0 0 0-11.52 3.84l-189.013333 98.986667c-9.386667 4.693333-20.053333 6.4-30.293334 4.693333a47.36 47.36 0 0 1-37.973333-54.186667l37.973333-209.92a47.786667 47.786667 0 0 0-13.653333-41.813333l-154.026667-149.333333c-12.8-12.8-17.493333-31.146667-11.52-48.213334 5.546667-16.64 20.053333-29.013333 37.973334-32l212.053333-30.72c16.213333-1.706667 30.293333-11.52 37.546667-26.026666l93.44-191.573334c2.133333-4.266667 5.12-8.106667 8.533333-11.52l3.84-2.986666c1.706667-2.133333 4.266667-3.84 6.826667-5.546667l4.693333-1.706667 7.253333-2.986666h17.92c16.213333 1.706667 30.293333 11.52 37.546667 25.6l94.72 190.72c6.826667 14.08 20.053333 23.466667 35.413333 26.026666l212.053334 30.72c17.92 2.56 32.853333 14.933333 38.826666 32 5.546667 17.066667 0.853333 35.84-12.373333 48.213334l-159.573333 151.04z" p-id="21764"></path></svg>