<svg xmlns="http://www.w3.org/2000/svg" xmlns:xlink="http://www.w3.org/1999/xlink" width="27" height="27" viewBox="0 0 27 27" fill="none"><defs><rect id="path_0" x="0" y="0" width="27" height="27" /></defs><g opacity="1" transform="translate(0 0)  rotate(0 13.5 13.5)"><mask id="bg-mask-0" fill="white"><use xlink:href="#path_0"></use></mask><g mask="url(#bg-mask-0)" ><path id="分组 1" fill-rule="evenodd" style="fill:#000000" transform="translate(0 0)  rotate(0 13.5 13.5)" opacity="1" d="M27 13.5C27 6.04 20.96 0 13.5 0C6.04 0 0 6.04 0 13.5C0 20.96 6.04 27 13.5 27C20.96 27 27 20.96 27 13.5Z M24.75 13.5C24.75 7.29 19.71 2.25 13.5 2.25C7.29 2.25 2.25 7.29 2.25 13.5C2.25 19.71 7.29 24.75 13.5 24.75C19.71 24.75 24.75 19.71 24.75 13.5Z M12.375 20.25C12.375 20.87 12.875 21.37 13.505 21.37C14.125 21.37 14.625 20.87 14.625 20.25L14.625 12.37C14.625 11.75 14.125 11.25 13.505 11.25C12.875 11.25 12.375 11.75 12.375 12.37L12.375 20.25Z M14.9625 7.205C14.9625 6.335 14.2525 5.625 13.3925 5.625C12.8225 5.625 12.3025 5.925 12.0225 6.415C11.7425 6.895 11.7425 7.505 12.0225 7.985C12.3025 8.475 12.8225 8.775 13.3925 8.775C14.2525 8.775 14.9625 8.065 14.9625 7.205Z " /></g></g></svg>