<?xml version="1.0" standalone="no"?><!DOCTYPE svg PUBLIC "-//W3C//DTD SVG 1.1//EN" "http://www.w3.org/Graphics/SVG/1.1/DTD/svg11.dtd"><svg t="1663425601054" class="icon" viewBox="0 0 1024 1024" version="1.1" xmlns="http://www.w3.org/2000/svg" p-id="14858" xmlns:xlink="http://www.w3.org/1999/xlink" width="512" height="512"><path d="M511.96 896.02a98.66 98.66 0 0 1-47.4-12.2L202.37 739.6c-31.38-17.29-50.88-50.27-50.9-86.1V370.54c-0.06-35.87 19.46-68.92 50.9-86.19L464.6 140.18a98.138 98.138 0 0 1 94.76 0l261.97 144.21c31.55 17.18 51.19 50.22 51.2 86.14v282.92c0.01 35.87-19.52 68.9-50.94 86.19L559.36 883.86a98.679 98.679 0 0 1-47.4 12.16z m294.95-522.75L544.73 530.58v286.55l245.21-134.87a32.815 32.815 0 0 0 17.07-28.76V373.27h-0.1z m-589.91 0v280.19a32.807 32.807 0 0 0 17.07 28.76l245.21 134.87V530.58L217 373.27z m294.96-179.72a32.77 32.77 0 0 0-15.79 4.27L264.23 325.18l247.72 148.44 247.72-148.61-231.94-127.4a32.764 32.764 0 0 0-15.77-4.06z" p-id="14859"></path></svg>