<?xml version="1.0" standalone="no"?><!DOCTYPE svg PUBLIC "-//W3C//DTD SVG 1.1//EN" "http://www.w3.org/Graphics/SVG/1.1/DTD/svg11.dtd"><svg t="1663425460688" class="icon" viewBox="0 0 1024 1024" version="1.1" xmlns="http://www.w3.org/2000/svg" p-id="3559" xmlns:xlink="http://www.w3.org/1999/xlink" width="512" height="512"><path d="M807.626 928.174H216.572c-66.47 0-120.547-54.077-120.547-120.548v-583.47c0-66.47 54.077-120.548 120.547-120.548h591.054c66.471 0 120.548 54.078 120.548 120.548v583.47c0 66.471-54.077 120.548-120.548 120.548zM216.572 167.608c-31.18 0-56.547 25.367-56.547 56.548v583.47c0 31.181 25.367 56.548 56.547 56.548h591.054c31.181 0 56.548-25.367 56.548-56.548v-583.47c0-31.181-25.367-56.548-56.548-56.548H216.572z" fill="#2c2c2c" p-id="3560"></path><path d="M427.557 689.649c-8.194 0-16.388-3.118-22.625-9.354l-99.283-99.283c-12.477-12.478-12.477-32.778 0-45.256l257.739-257.739c34.785-34.784 91.381-34.784 126.166 0l20.993 20.993c33.338 33.338 33.338 87.584 0 120.923L450.185 680.294c-6.239 6.237-14.434 9.355-22.628 9.355z m-87.968-131.265l87.968 87.969 254.704-254.704c17.743-17.743 17.743-46.612 0-64.354l-20.993-20.993c-9.24-9.241-21.599-14.33-34.798-14.33s-25.558 5.089-34.798 14.33L339.589 558.384z" fill="#2c2c2c" p-id="3561"></path><path d="M264.077 751.357a20.01 20.01 0 0 1-5.628-0.811c-10.601-3.104-16.678-14.213-13.575-24.813l50.914-173.905c3.104-10.601 14.213-16.676 24.814-13.575 10.601 3.104 16.678 14.213 13.575 24.813l-50.914 173.905c-2.555 8.725-10.533 14.386-19.186 14.386z" fill="#2c2c2c" p-id="3562"></path><path d="M267.005 755.005c-7.972 0-15.506-4.799-18.609-12.664-4.054-10.274 0.988-21.891 11.263-25.945l164.151-64.771c10.274-4.052 21.891 0.989 25.945 11.264s-0.988 21.891-11.263 25.945l-164.151 64.771c-2.41 0.95-4.893 1.4-7.336 1.4zM651.998 460a19.93 19.93 0 0 1-13.864-5.588L531.326 351.648c-7.96-7.658-8.204-20.319-0.546-28.279 7.659-7.961 20.32-8.203 28.278-0.545l106.809 102.764c7.959 7.658 8.203 20.319 0.545 28.279A19.943 19.943 0 0 1 651.998 460zM790 761H500c-11.046 0-20-8.954-20-20s8.954-20 20-20h290c11.046 0 20 8.954 20 20s-8.954 20-20 20zM790 665H570c-11.046 0-20-8.954-20-20s8.954-20 20-20h220c11.046 0 20 8.954 20 20s-8.954 20-20 20z" fill="#2c2c2c" p-id="3563"></path></svg>