<?xml version="1.0" standalone="no"?><!DOCTYPE svg PUBLIC "-//W3C//DTD SVG 1.1//EN" "http://www.w3.org/Graphics/SVG/1.1/DTD/svg11.dtd"><svg t="1663425632610" class="icon" viewBox="0 0 1024 1024" version="1.1" xmlns="http://www.w3.org/2000/svg" p-id="17010" xmlns:xlink="http://www.w3.org/1999/xlink" width="512" height="512"><path d="M889.8 151.3l-358.5 83.4v640l379.5-87.1c28.6-5.1 49.5-30 49.5-59.1v-518c0.1-37.5-33.7-65.7-70.5-59.2z m-16.4 515.9l-252 74c-1.9 0.5-3.8 0.8-5.6 0.8-8.7 0-16.6-5.7-19.2-14.4-3.1-10.6 3-21.7 13.5-24.8l252-74c10.6-3.1 21.7 3 24.8 13.6 3.2 10.5-2.9 21.6-13.5 24.8z m0-175.8l-252 74c-1.9 0.5-3.8 0.8-5.6 0.8-8.7 0-16.6-5.6-19.2-14.4-3.1-10.6 3-21.7 13.5-24.8l252-74c10.6-3.1 21.7 3 24.8 13.6 3.2 10.6-2.9 21.7-13.5 24.8z m0-175.7l-252 74c-1.9 0.5-3.8 0.8-5.6 0.8-8.7 0-16.6-5.7-19.2-14.4-3.1-10.6 3-21.7 13.5-24.8l252-74c10.6-3.1 21.7 3 24.8 13.5 3.2 10.7-2.9 21.8-13.5 24.9zM134.8 151.4c-36.8-6.6-70.6 21.7-70.6 59.1v518c0 29.1 20.8 54 49.4 59.1l377.7 87.1v-640l-356.5-83.3z m287.7 576.2C420 736.3 412 742 403.3 742c-1.9 0-3.8-0.3-5.6-0.8l-252.1-74c-10.6-3.1-16.7-14.2-13.6-24.8 3.1-10.6 14.2-16.7 24.8-13.6l252.1 74c10.7 3.1 16.7 14.2 13.6 24.8z m0-175.7c-2.6 8.7-10.5 14.4-19.2 14.4-1.9 0-3.8-0.3-5.6-0.8l-252.1-74c-10.6-3.1-16.7-14.2-13.6-24.8 3.1-10.6 14.2-16.7 24.8-13.6l252.1 74c10.7 3.1 16.7 14.2 13.6 24.8z m0-175.7c-2.6 8.7-10.5 14.4-19.2 14.4-1.9 0-3.8-0.3-5.6-0.8l-252.1-74c-10.6-3.1-16.7-14.2-13.6-24.8 3.1-10.6 14.2-16.7 24.8-13.5l252.1 74c10.7 2.9 16.7 14.1 13.6 24.7z" fill="#2c2c2c" p-id="17011"></path></svg>