<?xml version="1.0" standalone="no"?><!DOCTYPE svg PUBLIC "-//W3C//DTD SVG 1.1//EN" "http://www.w3.org/Graphics/SVG/1.1/DTD/svg11.dtd"><svg t="1663425623406" class="icon" viewBox="0 0 1024 1024" version="1.1" xmlns="http://www.w3.org/2000/svg" p-id="16544" xmlns:xlink="http://www.w3.org/1999/xlink" width="512" height="512"><path d="M511.999488 69.249177c-244.147556 0-442.068278 197.920722-442.068278 442.068278 0 244.147556 197.920722 442.068278 442.068278 442.068278 244.147556 0 442.068278-197.920722 442.068278-442.068278C954.067766 267.169899 756.147044 69.249177 511.999488 69.249177zM511.999488 877.661074c-202.326055 0-366.343619-164.017564-366.343619-366.343619 0-202.326055 164.017564-366.343619 366.343619-366.343619 202.326055 0 366.343619 164.017564 366.343619 366.343619C878.343107 713.64351 714.325543 877.661074 511.999488 877.661074z" p-id="16545"></path><path d="M830.140269 508.832867c0-24.569582-13.452383-45.984311-33.381271-57.32459l0-0.005117L421.476799 236.925061c-10.973936-8.160867-24.570605-12.991895-39.297005-12.991895-36.409235 0-65.924455 29.515221-65.924455 65.923432 0 0.531096 0.026606 1.056052 0.040932 1.584078l-0.00307 0.001023 1.803066 434.70559c-0.119727 1.62808-0.202615 3.267417-0.202615 4.928243 0 1.855254 0.095167 3.684926 0.245593 5.498224l0.002047 0.300852 0.021489 0.010233c2.943029 33.68724 31.204699 60.118216 65.655326 60.118216 15.135722 0 29.071106-5.114484 40.198537-13.69286l0.12075 0.054235 372.202047-216.936821 0-0.021489C816.499597 555.13031 830.140269 533.582551 830.140269 508.832867z" p-id="16546"></path></svg>